<svg xmlns="http://www.w3.org/2000/svg" viewBox="0 0 7500 7500" fill="#c14a36">
  <path d="M3801 7298c-217-4-396-10-398-12-4-3-31-3093-33-3675v-94l-575 7c-403 5-581 4-595-4-52-28-51-2-48-930l3-860 28-27 27-28h2998l25 23c29 27 16-10 332 970 185 573 253 800 249 818-4 14-21 35-38 46-30 19-43 20-763 14l-733-6v112c0 62 7 343 15 623 8 281 15 530 15 554v44l148-6c677-29 1290-432 1602-1054 147-295 214-580 213-908-1-280-47-512-150-755-298-703-985-1179-1968-1365-328-62-433-178-452-497l-6-101 269 6c682 15 1270 149 1788 409 450 225 814 536 1075 918 492 719 605 1650 304 2514-176 504-480 947-882 1283-504 421-1132 655-1844 689l-145 7 4 186c7 265 23 780 31 959l6 152-54-2c-30 0-231-5-448-10z" />
  <path d="M3070 6029c-131-11-218-27-266-48-35-16-42-24-47-57-8-51-52-103-118-139-50-27-61-29-165-30-125 0-146 9-158 67-9 46-24 58-68 58-102 0-426-143-516-227-55-52-58-62-43-142 18-93-19-138-168-208-93-44-174-54-231-28-25 11-50 15-72 11-97-18-368-319-368-408 0-16 11-45 24-66 32-48 47-132 36-200-19-115-65-150-216-161l-97-7-36-41c-42-47-102-165-126-248-12-38-16-81-13-127 4-66 6-72 38-99 88-74 98-87 110-146 14-66 0-219-27-285-20-50-73-96-120-103-70-11-80-14-106-35-48-38-59-100-55-298 4-189 9-213 60-258 12-11 46-29 73-39 66-24 144-103 168-170 37-108 9-204-88-301-92-92-93-101-29-256 80-194 103-218 234-236 118-17 213-71 261-148 31-51 22-116-35-240-41-91-45-103-35-137 15-56 224-277 325-344l58-38 162 3c191 4 234-8 278-75 31-47 56-140 56-210 0-52 1-53 58-98 103-81 335-185 414-185 48 0 70 11 129 65 25 24 71 52 105 65 69 27 200 37 260 21 94-25 203-131 227-218 14-54 38-69 134-83 78-11 313-13 426-4l77 7v894l-222 6c-123 3-275 13-338 22-750 104-1317 487-1594 1075-206 438-233 951-75 1425 255 766 932 1259 1777 1292l142 6v1137l-52-1c-29-1-96-5-148-10z" />
</svg>
